<svg id="Layer_1" data-name="Layer 1" xmlns="http://www.w3.org/2000/svg" viewBox="0 0 579.37 132.3"><defs><style>.cls-1{fill:#fff;}.cls-2{fill:#222;}</style></defs><path class="cls-1" d="M44.88,94.86q-2.94-.58-6.27-1t-6.47-.68q-3.13-.3-5.68-.49c-1.7-.13-3.14-.2-4.31-.2H18v2.16H16.56a6,6,0,0,1-2.25-.39h-.39l-.4.78L10,95.65,5.88,94.47a1.33,1.33,0,0,1-1,.39H3.72a1.69,1.69,0,0,1-1.66-1,7.42,7.42,0,0,1-.69-2.15,13.88,13.88,0,0,1-.19-2.26A3.76,3.76,0,0,0,1,88l-.59-.39.2-.39H1c0-.26,0-.39-.1-.39s-.1-.13-.1-.39L1,84.28l-.59.59c-.26,0-.39-.07-.39-.2v-.39a14.32,14.32,0,0,1,.78-4.51c.52-1.57.72-2.28.59-2.15H2.74q-.39-1-1.17-.69c-.53.2-.79-.23-.79-1.27,0-.66.49-1.08,1.47-1.28a13,13,0,0,1,2.06-.29c.13,0,.2.13.2.39l.39-.59A.81.81,0,0,1,5,73.5a1.43,1.43,0,0,0,.1-.59V71c-.66.27-1,.36-1.18.3s-.72.23-1.76.88v-.79c0-1,.32-1.56,1-1.56h.78V68.21c-.66,0-1.08.19-1.27.59a1.3,1.3,0,0,1-1.28.58,21.58,21.58,0,0,1,.2-2.54,2.1,2.1,0,0,1,1.57-2V62.33c-.27.26-.46.39-.59.39H2.16a8,8,0,0,0,.39-2.55v-.78a3.79,3.79,0,0,0-.69,1.76,3.85,3.85,0,0,1-.88,2v-.39a19.05,19.05,0,0,1,.2-2.35c.12-1,.19-1.7.19-2L1.76,57l.79.39,1.37-2.35h.39a2.09,2.09,0,0,1,.1-.69,1.84,1.84,0,0,0,.1-.49v-.39l-.59.59L2.74,52.92a3.77,3.77,0,0,1,.4-1.76q.39-.78.78-1.77a30.88,30.88,0,0,1,1-4.21q.58-1.86,1.08-4c.32-1.44.62-3.07.88-4.9a48.32,48.32,0,0,0,.39-6.66v-1h-1a1.16,1.16,0,0,0-.39-.79,3.79,3.79,0,0,1,.49-1.37,3.94,3.94,0,0,0,.49-1.37,5.08,5.08,0,0,1-.2-1.57A2.39,2.39,0,0,1,7,22.25l1-1.67A35.49,35.49,0,0,0,9.6,17.15c.66-1.5,1.5-3.63,2.55-6.37h-.59l1.57-3.53a22.07,22.07,0,0,0,1.08-3.62C14.67,1.73,15.35.52,16.27,0l.78.59c-.13,0,.1,0,.69-.1A3.2,3.2,0,0,0,19.21,0a11.74,11.74,0,0,0,3.53,2.55c1.17.52,2.31,1,3.43,1.37A17.76,17.76,0,0,1,29,5.19a4.26,4.26,0,0,1,1.76,2.45A5.31,5.31,0,0,0,30,9.8c-.27,1.18-.49,2.42-.69,3.72s-.33,2.39-.39,3.24-.1,1.14-.1.88h.39a10.52,10.52,0,0,0,1.38-.1,12.43,12.43,0,0,1,1.37-.1q3.14-1.17,5.29-1.76c1.44-.39,2.68-.72,3.72-1a13.9,13.9,0,0,0,2.94-1.08,10.49,10.49,0,0,0,2.75-2.06,3.43,3.43,0,0,0,1.17.2,1.28,1.28,0,0,0,1.08-.39,4.9,4.9,0,0,1,.79-.79,5.57,5.57,0,0,1,1.56-.78,11,11,0,0,1,3.43-.39c.13,0,1,.23,2.75.68s3.2,1.8,4.51,4c-.66.27-1.25,1.31-1.77,3.14a57.55,57.55,0,0,0-1.37,6.27q-.59,3.53-1,7.06a54.05,54.05,0,0,0-.39,5.68c-.92,2.88-1.54,4.67-1.86,5.39a4.6,4.6,0,0,0-.49,1.86,1.34,1.34,0,0,0,.78,1.08,18.78,18.78,0,0,0,1.76,1l2,1a6,6,0,0,1,1.57,1.08,5.44,5.44,0,0,1,1.08,2.06,5.28,5.28,0,0,0,.88,1.86v9.7a16.73,16.73,0,0,1-.78,5.59c-.66.26-.95,1-.88,2a4.07,4.07,0,0,1-.3,2.26l-.59,1h.59l-2,2.74L59,78.79a17.69,17.69,0,0,1-2,7.45,16.61,16.61,0,0,0-2,7.06H53.51l-2,1.56-1.37.2-3.14-1ZM21,82.32l.59.39q2.94.41,6.17.88a39.72,39.72,0,0,0,6,.49,54.85,54.85,0,0,0,6.37-.49,14.87,14.87,0,0,0,6.18-1.86c0-.26,0-.85.09-1.76a8,8,0,0,1,.49-2.35v-.2a7,7,0,0,1,.4-1.86,7.51,7.51,0,0,0,.39-1.67l.78.2L48,71.93a49.14,49.14,0,0,1,.59-7.64c.39-2.48.71-5,1-7.65,0-.78-.62-1.24-1.86-1.37s-2.13-.19-2.65-.19a28.92,28.92,0,0,0-11.27,2.54,89,89,0,0,0-10.88,5.49l-1,.2a3.77,3.77,0,0,0-.59,2c-.13,1-.39,1.57-.78,1.57h-.2l-1.17,3.72a34.83,34.83,0,0,1-.39,5.29,33.76,33.76,0,0,0-.4,5.29c0,.79.26,1.18.79,1.18l.78-.39ZM46.06,34.69c-.13,0-.2-.06-.2-.19A21.47,21.47,0,0,1,47.24,30a20.07,20.07,0,0,0,1.37-6.86A1.53,1.53,0,0,0,48,21.76a74.31,74.31,0,0,1-9.6,3.62,23.32,23.32,0,0,0-8.24,4.22l-2.74,1.76a20.14,20.14,0,0,0-3.14,4.51,7.57,7.57,0,0,0-.78,2.94L24.3,38a11.23,11.23,0,0,0-.29,3,2.93,2.93,0,0,1-1.08,2.26l-.39.19h1.57v1.37a6.83,6.83,0,0,1-.2,1.28,7,7,0,0,0-.19,1.47,4.48,4.48,0,0,0,.09,1,3,3,0,0,1,.1.78c0,.92-.19,1.44-.59,1.57h.4a1.33,1.33,0,0,0,.78-.29,1.92,1.92,0,0,1,1.18-.3,1.74,1.74,0,0,1,.78.2,43.48,43.48,0,0,1,6.37-2.75,23.63,23.63,0,0,0,6.37-3.33l.59-.59,2.74-.68a2.88,2.88,0,0,0,2.35-1.86Z"/><path class="cls-1" d="M101.33,22.74a5.6,5.6,0,0,1-1.08,2.35,6.74,6.74,0,0,0-1.07,3.13l.19.79a2.57,2.57,0,0,1-.78,1.66A2.57,2.57,0,0,0,97.8,32l-.58,7.84a7.7,7.7,0,0,1-.1,1.17,6.8,6.8,0,0,0-.1,1.18v1.57a5,5,0,0,1-.78,2.35l.39,2v-.2l.19.4c-.39.65-.62,1-.68,1.17a5.67,5.67,0,0,0-.3,1l.59.39a2.78,2.78,0,0,1-.19,1.38l-1,2.94a1.65,1.65,0,0,1-.59,1l-1-.4-4.9,5.69h.39a3.73,3.73,0,0,0,1.37-.49c.65-.33,1.31-.62,2-.88s1.63-.85,2.55-1.38a6.5,6.5,0,0,1-.49,2.65,8.88,8.88,0,0,0-.69,2.45L93.49,67l.39,1.57-1.56.2-2.55,1,.19.78,1.77,2,1.57-2.35.78.78.39,2.35,1,.79V78.4l-.78,1H92.32l-.4,3.72h2.16a1.89,1.89,0,0,1,.69.69,1.67,1.67,0,0,0,.68.69l12.74,9.4,1.37,1v2.55L104.08,100a4.78,4.78,0,0,1-1.38-.1,2.64,2.64,0,0,0-.49-.19l-1.27-.49a25.84,25.84,0,0,0-3.92-1l-.78-.4c-.14,0-.2,0-.2.1s-.07.1-.2.1a1.74,1.74,0,0,1-.78-.2L93.49,97c0,.13-.26.2-.78.2a9.58,9.58,0,0,1-2.84-.3,3.65,3.65,0,0,1-1.67-1.27l-7.84-3.92a24.63,24.63,0,0,1-2.06-2.26,18.14,18.14,0,0,0-1.37-1.56c-.46-.46-.69-.75-.69-.89l-1.17-6.66a3.83,3.83,0,0,1,.39-1.47,4.13,4.13,0,0,0,.39-1.67,2.45,2.45,0,0,0-.29-1.37,2.31,2.31,0,0,1-.3-1.37V73.7a1.81,1.81,0,0,1,.2-.79,2.19,2.19,0,0,0,.2-1,.53.53,0,0,1-.2-.39l-.2-1,1-2.16a.39.39,0,0,1,.1-.29.37.37,0,0,0,.1-.29v-.4a.63.63,0,0,0-.59-.68.64.64,0,0,1-.59-.69l1.38-3.53V60.76c0-.65,0-1.3-.1-2a22.63,22.63,0,0,1-.1-2.35,60.08,60.08,0,0,1,1.18-6.18c.39-1.5.91-3.55,1.56-6.17.26,0,.4-.2.4-.59a1,1,0,0,0-.4-.88c-.26-.2-.39-.88-.39-2.06a22.28,22.28,0,0,1,1.08-5.29A25.32,25.32,0,0,0,81,28.22h-.79q.39-2.14.69-4.41A29,29,0,0,1,81.93,19l.78-2.55a7.81,7.81,0,0,0,.79-2.35L84.28,10l1-1a35.22,35.22,0,0,0,3.63.39,14,14,0,0,1,3.62.59,2.68,2.68,0,0,1,2-.79h2.35l5.88,2.35-.78,3.14a5.51,5.51,0,0,0,.78,2.45,5.6,5.6,0,0,1,.79,2.06l-2.35,3.13Zm-19.4,2.94c-.27,0-.39.46-.39,1.37,0,.65.19,1,.58,1s.59-.39.59-1.18S82.45,25.68,81.93,25.68Zm.78-3.34c-.52.14-.78.4-.78.79s.26.59.78.59.79-.2.79-.59A.7.7,0,0,0,82.71,22.34ZM94.08,51.55v.39c0,.39.13.59.39.59s.59-.39,1-1.18a.79.79,0,0,1-.19-.59v-.58Zm1.76,29.79v.78h-1l.2-.78Zm1.77-2.74h3.53l-2.36.78L98,81.73l-.78-1.57Z"/><path class="cls-1" d="M145.82,87.22c2.35.66,3.53,1.11,3.53,1.37l-.2,1.77a8.1,8.1,0,0,0,.79,3.72,2.13,2.13,0,0,0,.78,1c0,.26-.56.42-1.66.49s-2.42.16-3.92.29-3,.23-4.51.3-2.72.1-3.63.1h-1.37a17,17,0,0,1-7.25-1.38,10.24,10.24,0,0,1-4.71-4.7l-.78-.39-.39-2.55c-.27-1-.53-2-.79-2.94a10.66,10.66,0,0,1-.39-2.94,4.08,4.08,0,0,1,1-2.06c.52-.59,1-1.11,1.47-1.57l1.08-1.07c.26-.26.2-.4-.2-.4a4.76,4.76,0,0,1,1.18-2.54,21.13,21.13,0,0,1,2.94-3.14c1.18-1,2.38-2.06,3.63-3s2.25-1.73,3-2.25l1.57.39a10.82,10.82,0,0,0,2.06-.49c1.11-.32,2-.62,2.65-.88l2.74-2c.91-.13,1.37-.59,1.37-1.37l7.65-3.53a3.16,3.16,0,0,1,.68-.88c.33-.33.49-.56.49-.69l-1.57-6.27c0-.26-.19-.39-.58-.39-.14,0-.2,0-.2.09s-.07.1-.2.1h-.39a25.66,25.66,0,0,0-3.43.39c-1.63.27-3.3.59-5,1s-3.92.86-6.66,1.38a.81.81,0,0,1-.59.19,3.73,3.73,0,0,1-2.45-1.17c-.85-.79-1.6-1.5-2.25-2.16l-2-.78-1-.79a1.19,1.19,0,0,0-.2-.68,7.08,7.08,0,0,1-.39-.69l-.39-.78c0-.66,1.08-1.24,3.23-1.77a72.07,72.07,0,0,1,8.14-1.37c3.26-.39,6.76-.69,10.48-.88s7.16-.3,10.29-.3h.59a9.51,9.51,0,0,1,7.45,3,13.67,13.67,0,0,1,2,2.75,15.35,15.35,0,0,0,1.76,2.64v3.33c0,1.44,0,2.59.1,3.43s.1,1.67.1,2.45a16.07,16.07,0,0,1-.2,2.45,31.91,31.91,0,0,1-.78,3.43,3.33,3.33,0,0,0,.39,1.67,2.94,2.94,0,0,1,.39,1.47v.2l.2,1.37L169.93,71l1.18,1.37-1.38,1.77a2.24,2.24,0,0,1-.29,1,2.24,2.24,0,0,0-.29,1l.19.19L169,79.38l1.57.39-.2,1.18-1.17.59.39.78-.2,1.37a14.27,14.27,0,0,0-1.37,5.1c-.26,2.22-.46,3.85-.59,4.9-.13.26-.62.42-1.47.49l-2.74.19c-1,.07-2.32.1-4,.1a4.86,4.86,0,0,1-3-1,6.52,6.52,0,0,1-2-2.45,12.55,12.55,0,0,1-1-3.13,18.25,18.25,0,0,1-.29-3A11.6,11.6,0,0,1,154,79.48,12.78,12.78,0,0,0,155,73.7a7.67,7.67,0,0,1-.09-3.24c.19-1.11-.3-1.66-1.47-1.66l-.89.88a3.16,3.16,0,0,1-.88.68,1.64,1.64,0,0,0-1-.19,6.09,6.09,0,0,0-1.76.59c-.92.39-1.9.85-2.94,1.37s-2,1.05-2.84,1.57a4.23,4.23,0,0,0-1.47,1.17,38.53,38.53,0,0,1-4.22,2.35,12.23,12.23,0,0,0-3.43,2.36l-.39,2.94a4.64,4.64,0,0,1-.2.88,4.66,4.66,0,0,0-.19,1.27l.19.2.79-.59.59,1a12.55,12.55,0,0,0,2.74.1,3.23,3.23,0,0,1,2,.29.37.37,0,0,0,.29-.1.45.45,0,0,1,.3-.09,4.71,4.71,0,0,1,2.45,1,4.94,4.94,0,0,0,2.64,1A.81.81,0,0,0,145.82,87.22Z"/><path class="cls-1" d="M183.26,78.4a26.4,26.4,0,0,1,.58-4.41,61.36,61.36,0,0,1,1.67-6.47,34.24,34.24,0,0,1,2.65-6.27,9.33,9.33,0,0,1,3.33-3.82l.59.59a25.84,25.84,0,0,0-2.85,4.11,9.56,9.56,0,0,0-1.47,4.71V68.4a28,28,0,0,1,1.67-4,10.45,10.45,0,0,0,1.27-3.83v-.39a16.73,16.73,0,0,1,2.36-2.55,16.61,16.61,0,0,0,2.35-2.54l3.13-2.75a18.6,18.6,0,0,1,5.59-2.94A35.06,35.06,0,0,1,209.91,48l3.92-.39a18.75,18.75,0,0,1,3.53.49,25.9,25.9,0,0,1,4.51,1.37,19.19,19.19,0,0,1,3.82,2.06,3.23,3.23,0,0,1,1.67,2.55c0,.91-.76,1.6-2.26,2a26.5,26.5,0,0,1-5.19,1c-2,.2-4,.37-6,.49a17.39,17.39,0,0,0-4.61.79l-4.7,9,.2.4c-.66,1.44-1.34,2.91-2.06,4.41a11.9,11.9,0,0,0-1.08,2.64V79l.78,1.37h1.77q4.31,0,8.82-.29t11.37-1.47l-.2,1.56-.59,1c0,.27.23.46.69.59a4.17,4.17,0,0,0,1.08.2,1.3,1.3,0,0,0-.4,1,.81.81,0,0,0,.2.59.78.78,0,0,1,.2.58c0,.66-.46,1.28-1.38,1.87a23.92,23.92,0,0,1-3.13,1.66,18.88,18.88,0,0,1-3.43,1.18,12.2,12.2,0,0,1-2.26.39l-9.8,1.37a6,6,0,0,0-1.76-.19,13.1,13.1,0,0,0-1.67.09,9.7,9.7,0,0,1-1.47.1c-1.44,0-2.25-.19-2.45-.59a1.52,1.52,0,0,0-1.07-.78,22.77,22.77,0,0,1-5.3-1.57,14.83,14.83,0,0,1-3.33-2c-.26-.26-.68-.71-1.27-1.37s-1.18-1.34-1.77-2.06a14.68,14.68,0,0,1-1.47-2.15A3.92,3.92,0,0,1,183.26,78.4Zm5.88-9.6a3.32,3.32,0,0,1-.2,1,3.27,3.27,0,0,0-.2,1l.4,1a5.83,5.83,0,0,0,.19-2Zm.39-.79a3.21,3.21,0,0,1,.19-1,3.21,3.21,0,0,0,.2-1v-.39a2.3,2.3,0,0,0-.78,2Z"/><path class="cls-1" d="M239.7,87.22l1-.78h-1v-1c0-.13.13-.33.39-.59l.59.78L244,81.93a1.48,1.48,0,0,1-.19-.59c0-.13-.2-.32-.59-.59a4.92,4.92,0,0,1-.78.69,8.91,8.91,0,0,1-2,.1,2.06,2.06,0,0,1-.2-1A4.32,4.32,0,0,1,241,78a3.45,3.45,0,0,0,.68-2h-.39c-.26,0-.59-.26-1-.79a1,1,0,0,0-.69.3.81.81,0,0,1-.49.29,9.34,9.34,0,0,1,1.08-2.25,5.09,5.09,0,0,0,.88-2.06L240.29,69a10.38,10.38,0,0,1,.1-1.37,15.37,15.37,0,0,0,.1-1.76c0-.66,0-1.31-.1-2a20.63,20.63,0,0,1-.1-2.16l.39-.78q0-2.74-.39-2.85c-.26-.06-.39-.42-.39-1.07,0-.13.26-.46.78-1-.26-.26-.39-.46-.39-.59a1.68,1.68,0,0,1,.49-1,2.06,2.06,0,0,0,.49-1.37l-.59-.2a15.19,15.19,0,0,0,.79-3.92c.12-1.57.26-3.17.39-4.8s.22-3.14.29-4.51a12.72,12.72,0,0,1,.49-3.23,24.2,24.2,0,0,1,1.08-7.94,20.72,20.72,0,0,0,1.08-7c0-1.3.06-2.87.19-4.7s.3-3.56.49-5.2.36-3,.49-4.21.2-1.89.2-2.16h1.37l3.33-1.76H253a2,2,0,0,1,1.67,1,9.87,9.87,0,0,0,1.86,2l3.13,2.94,1.18,1.17a4.25,4.25,0,0,1-.1.89,4.94,4.94,0,0,0-.1.88l-.58,3.53a39.31,39.31,0,0,0,.49,4.8,41.51,41.51,0,0,1,.49,4.8l-.2.39.2,5.1a1.14,1.14,0,0,1-.4.78,1.93,1.93,0,0,0-.39,1.37,1.81,1.81,0,0,1,.2.79c0,.52-.2.78-.59.78s-.59.13-.59.39l.2.2h.78a2.38,2.38,0,0,1-.29,1,2.27,2.27,0,0,0-.3,1c.52.26.85,1,1,2.16a33.82,33.82,0,0,1,.2,3.72l.39.2a1.09,1.09,0,0,1-.39.49c-.13.06-.2.23-.2.49a1.1,1.1,0,0,0,.4.78c0,.66-.2,1-.59,1.08s-.59.62-.59,1.66c0,.4.39.59,1.18.59-.79.79-1.18,1.11-1.18,1,0,.27.26.46.78.59l.59,2a4.86,4.86,0,0,0-1.17,2.74v.4A5.06,5.06,0,0,0,262,53.7a12.18,12.18,0,0,1,1.66-1.56L267.53,50l-.39-.2a4.9,4.9,0,0,0,2.26-.68c.85-.46,1.66-.91,2.45-1.37a18.2,18.2,0,0,0,2-1.38,3.49,3.49,0,0,1,1.08-.68,1.31,1.31,0,0,0-.1-.59.92.92,0,0,1-.09-.39l.58-.59L284,37l1.76-1.76A8,8,0,0,0,287.23,34l1.47-1.47.39-.4h-.78l2.35-2.35a.55.55,0,0,1-.19-.39,2.29,2.29,0,0,1,.78-1.57,2.15,2.15,0,0,1,1.37-.78c.13,0,.23.1.3.29s.22.3.49.3l1-.2c.13,0,.36.17.68.49a1.34,1.34,0,0,0,.88.49,1.28,1.28,0,0,0,.59-.1,1.46,1.46,0,0,1,.59-.1,2.17,2.17,0,0,1,1.37.79A11,11,0,0,1,300,30.87a15.07,15.07,0,0,1,1.18,2.25,5.51,5.51,0,0,1,.49,2l-.59,1.57-1.18,1.18A27.31,27.31,0,0,1,296.15,41a27.24,27.24,0,0,0-3.53,2.94l-7.45,8-1.56,1.18a27.18,27.18,0,0,1,2.05,4.31,18.44,18.44,0,0,1,1.08,3.13l1.57,5.69a19.68,19.68,0,0,0,3,6.17,65.54,65.54,0,0,1,4.21,7L295,82.32l2.15,1.57,2,2.55-.59,2.15,2,1-.59,2.35a5.39,5.39,0,0,0,.2,1.18,1.41,1.41,0,0,0,.59,1l.39.78a82.92,82.92,0,0,0,2.84,8.24q1.86,4.7,3.73,9t4.41,10v-2c-.27-.27-.39-1-.39-2.16a3.55,3.55,0,0,0-.4-2.15l1-.4c.39,1.7.72,3,1,3.92s.46,1.67.59,2.26.23,1,.29,1.37a5.15,5.15,0,0,1,.1,1.08,2.73,2.73,0,0,1-.19,1.17l-1,2-2.16,1.18-2,2-2.35-.39-1.37.59-.59,1.56a4.17,4.17,0,0,1-1.57.1,5.4,5.4,0,0,0-1.76.1l-.4-.78c-.26-.79-.78-2.06-1.56-3.83s-1.64-3.62-2.55-5.58-1.8-3.82-2.65-5.59-1.47-3-1.86-3.82l-2.16-2-1-2.74-1-.4-1.37-3.13a27,27,0,0,1-2.06-4.22,8,8,0,0,1-.49-2.25,1.16,1.16,0,0,1,.59-1l-1.17-2.35-.79-2.35a92,92,0,0,0-6.56-13.72q-2.65-4.12-3-4.51V73.7h1v-.59a4.75,4.75,0,0,0-.49-1.47,5.43,5.43,0,0,1-.49-1.28V70c0-.26.06-.42.19-.49s.2-.22.2-.49h-.39L272,67.23q-.39-.2-.78-1.77a4.9,4.9,0,0,0-.79-2l-.58-1.37A12.24,12.24,0,0,1,265.67,65a11.68,11.68,0,0,0-4,2.65L258.13,69V85.46l.58.19a6.53,6.53,0,0,0-.39,2c0,.53.13.79.39.79l-.39,1a2.17,2.17,0,0,0-.19,1,3.76,3.76,0,0,0,.39,1.76,3.89,3.89,0,0,1,.39,1.76v1l-.39.4.78,1a1.28,1.28,0,0,0-.29.39,1.09,1.09,0,0,1-.49.39v-.39a4.42,4.42,0,0,0-1.37.59l2,.39A3.3,3.3,0,0,1,257,98.78a3.74,3.74,0,0,1-.88-.78c-.07-.13-.43-.2-1.08-.2a18.7,18.7,0,0,0-4.51.59c-1.57.39-2.81.72-3.72,1q-3.93-.59-5.2-2.06a4.59,4.59,0,0,1-1.27-3,2.58,2.58,0,0,1,.2-1.18v-.2c0-.52.19-.81.58-.88s.59-.62.59-1.66c0-.4-.72-.59-2.15-.59Zm1.37-13.13h-.39l-.19.19c0,.14.26.33.78.59Zm.59,4.7v-1c-.13,0-.26.2-.39.59Zm1.57.79c.65,0,1-.26,1-.79a19.85,19.85,0,0,1,.59-3.33c-.26,0-.53.2-.79.59a1.91,1.91,0,0,0-.39,1c0,.13,0,.19.1.19s.1.07.1.2a1.12,1.12,0,0,1-.39.78,1.32,1.32,0,0,0-.4,1A.57.57,0,0,0,243.23,79.58ZM301.44,92.9l.39-.19a.69.69,0,0,1,.79.78.52.52,0,0,1-.59.59.69.69,0,0,1-.78-.78A.59.59,0,0,1,301.44,92.9ZM303,95.26l.2.39V96c-.53,0-.79-.33-.79-1h.2A.53.53,0,0,1,303,95.26Zm3.53,4.9-.59,1.17-1.76-2.15-.59-1.57,1,.59Zm.78,3.72.4.59-1.57-.39Zm1.57,3.92h.39c.26,0,.4.06.4.2a.63.63,0,0,1-.4.58,1.74,1.74,0,0,1-.78.2c-.26,0-.39-.07-.39-.2S308.37,108.06,308.89,107.8Zm1.76,2,.4,1-.59,1-1.18-.39.59-1.18Z"/><path class="cls-2" d="M363.57,76.24l-1,1.57-1.37,6.08.59,1.37,1.18.39a8.36,8.36,0,0,0,2.25.2,9.06,9.06,0,0,1,2.84.39H371c.26,0,1.21,0,2.84.1a22.55,22.55,0,0,1,5.2.88l.78.2a6.41,6.41,0,0,1,1.18.29l2,.59c.65.19,1.27.39,1.86.59a5.8,5.8,0,0,0,1.08.29l.39,1.37-.59,5.29-1.76.59c-.66-.13-2.55-.39-5.69-.78a74.47,74.47,0,0,0-9.21-.59H357.4a8.13,8.13,0,0,0-1.67.2,28.14,28.14,0,0,0-3.82.39c-1.76.26-3.53.55-5.29.88s-3.27.59-4.51.78-1.6.23-1.08.1l-1.56.39a8.51,8.51,0,0,0-1.38.2c-.65.13-1.3.29-2,.49s-1.27.36-1.86.49a8.17,8.17,0,0,1-1.08.2l-.39-.2a5.92,5.92,0,0,1-1.76-.2l-1.18-.39-.39-2.55-1.76-1.56-.2-.79-1.57-1.37v-2l1.37-.39.4-2.16,1-.59a2.41,2.41,0,0,0,1-.58,1.59,1.59,0,0,1,1.17-.4h2.75l1.76-.39a6.84,6.84,0,0,1,1.37-1.37l3.14-2.55,2.35-4.9a3.19,3.19,0,0,1,.49-1.47c.32-.59.62-1.14.88-1.66V71.93a23.12,23.12,0,0,0,1.18-2.25,5.54,5.54,0,0,0,.59-2.26l1-12.74.58-.58V50.76A3,3,0,0,1,347,50a2.46,2.46,0,0,0,.1-.59l.2-1-.2-.59,4.31-21.75V24.21a2.58,2.58,0,0,0-.78-1.87v.59h-1.77a29.73,29.73,0,0,1-6.86-.59,11,11,0,0,1-3.72-1.56l-2.74-2.36-.79-1c0-.52.39-.91,1.18-1.17l1.17-.39q7.45,0,11.76.09t7.06,0c1.83-.06,3.49-.19,5-.39s3.43-.55,5.78-1.08L372,12l3.33.78,3.92.2a4.37,4.37,0,0,1,1.67.49c.72.32,1.44.68,2.16,1.07a15.78,15.78,0,0,1,2,1.28c.58.46.88.75.88.88a4.46,4.46,0,0,1-1.37,3,8.41,8.41,0,0,1-4.71,2.06,11.46,11.46,0,0,0-5.58,2.74A24.56,24.56,0,0,0,370,29.3a21.29,21.29,0,0,0-2.64,5.49,17.67,17.67,0,0,0-.89,5.19,2.36,2.36,0,0,1-.09.69,10.87,10.87,0,0,1-.49,1.08h.39a5.17,5.17,0,0,1-.1,1.37,6.92,6.92,0,0,1-.88,1,.67.67,0,0,0,.29.59q.3.2.3.39l.39,1.18c0,.26-.07.39-.2.39s-.19.13-.19.39v.59l.39.19a1.5,1.5,0,0,1-.69,1.28c-.46.33-.68.62-.68.88.65,0,1,.13,1,.39a7.31,7.31,0,0,1-.49,2.35,16.81,16.81,0,0,0-.69,2.36l-1.37,6.07-.39.59v2.35a7.87,7.87,0,0,1-.4,2.26,3.14,3.14,0,0,1-1.37,1.86h1.37a1.18,1.18,0,0,1-.19.68,1.24,1.24,0,0,0-.2.69V70c0,.27.26.39.79.39a1.89,1.89,0,0,0,1.37-.39v.59a7.42,7.42,0,0,1-.79,2.74L363,75.66ZM346.91,57a3,3,0,0,0,.1.78,2.46,2.46,0,0,1,.1.59h.2c.26,0,.39-.33.39-1v-.79a.34.34,0,0,0-.39-.39l-.2.2Zm1.38,1.76c-.53.26-.89.36-1.08.29s-.3.23-.3.89v4.11l1.38-1.17ZM354,64.09a2.78,2.78,0,0,1-.1.88,2.09,2.09,0,0,0-.1.69,7.64,7.64,0,0,0,.4,1.37,27.39,27.39,0,0,0,.19-3.13V57.82a1.38,1.38,0,0,1-1.37,1l-.59,1.76,1.18-1c.26,0,.39.27.39.79a1.16,1.16,0,0,1-.59,1,1.91,1.91,0,0,1-1,.39,7,7,0,0,0,.2,1.86,6.24,6.24,0,0,1,.19,1.67,5.21,5.21,0,0,1-.19,1.57l.39-.59a3.11,3.11,0,0,1,.29-1.08,2.91,2.91,0,0,0,.3-1.08Zm.39-10.39a3.23,3.23,0,0,0-.59,1.67,13.62,13.62,0,0,0-.19,1.86c.39,0,.62-.36.68-1.08s.1-1.2.1-1.47Z"/><path class="cls-2" d="M399.44,70.36l2.16-5.29a1.49,1.49,0,0,0-.1-.59,1.23,1.23,0,0,1-.1-.58,12.22,12.22,0,0,1,.79-4,55.25,55.25,0,0,1,4.6-9.8c1-1.63,1.93-3.24,2.84-4.8a.56.56,0,0,1-.19-.4,2.05,2.05,0,0,1,.68-1.47,2,2,0,0,1,1.28-.68,11.68,11.68,0,0,1,3.92.78,18.61,18.61,0,0,1,4,2.06,15.67,15.67,0,0,1,3.23,2.94,5.61,5.61,0,0,1,1.37,3.63l-.39,1.56L438.84,47h3.52c0-.26.17-.42.49-.49a5,5,0,0,1,.69-.1,2.75,2.75,0,0,1,1.67.39c.32.27.81.72,1.47,1.38l2.35.39c.52.26,1.34.65,2.45,1.17s1.67,1,1.67,1.38v3.33h-.79l-.2.59c0,.13.07.19.2.19h.39a.57.57,0,0,0,.4.2v.59l-.4.58c0,1,.13,1.64.4,1.77a26,26,0,0,1-.59,4.9q-.6,2.94-2.16,3.92h1.37a1.33,1.33,0,0,0-.39,1c0,.39.06.62.2.68a.32.32,0,0,1,.19.3,10.27,10.27,0,0,1-.49,3.13,9.15,9.15,0,0,0-.49,2.36L450,77.62a13,13,0,0,1-.88,2.54,7.41,7.41,0,0,0-.49,3.14l.39,1a3.38,3.38,0,0,1-.59,1.57,3.8,3.8,0,0,0-.59,2,4.08,4.08,0,0,0,.39,2.35v.39l-1,.39-.59,1.18a4.12,4.12,0,0,0-1.47.69,2.55,2.55,0,0,1-.49.39,3,3,0,0,1-.79.19,18.93,18.93,0,0,1-2.54.1,3.46,3.46,0,0,1-3-1.57,12.17,12.17,0,0,1-1.67-3.62A18.93,18.93,0,0,1,436,84c-.06-1.5-.09-2.65-.09-3.43v-5c0-1.37,0-2.68.09-3.92s.17-2.55.3-3.92.32-3,.59-5a19.46,19.46,0,0,0-.3-2.65c-.19-1.24-.29-2-.29-2.25l-2.16.78a61.48,61.48,0,0,0-9,4.9q-4.51,2.94-5.3,7.06l-.39,1.76.59.4a9.83,9.83,0,0,0-.49,1.47,14.39,14.39,0,0,0-.1,2.25L421,75.26v.2a4.77,4.77,0,0,1-1.66,4,3.72,3.72,0,0,0-1.67,3L419,87.81l-.39,5.29h-2a8.77,8.77,0,0,0-1.08.69,2.29,2.29,0,0,1-1.27.49l-9.41-1-6.47-3.14,1.77-2.35c-.27.26-.46.39-.59.39h-.2a1.08,1.08,0,0,1-.78-.2,1.93,1.93,0,0,1,.39-1.37l.39.79,3.33-3.73a1.31,1.31,0,0,0-.58-1.17,4.47,4.47,0,0,1-.79.68,10.47,10.47,0,0,1-2.16.1,6.75,6.75,0,0,1,.69-3.23,4.87,4.87,0,0,0,.69-2.26h-.39c-.27,0-.59-.26-1-.78a1.29,1.29,0,0,0-.68.19.9.9,0,0,1-.49.2,12.78,12.78,0,0,1,1.08-2.06A5.18,5.18,0,0,0,400,73.3Zm.59,5.3h-.59v.19c0,.13.26.39.79.79Zm.59,4.9V79.38a.18.18,0,0,0-.2.2.37.37,0,0,1-.1.29.44.44,0,0,0-.09.29Zm1-5.88V73.5l-.4.78Zm.59,6.66c.65,0,.94-.29.88-.88a9.21,9.21,0,0,1,.68-3.24c-.39,0-.78.43-1.17,1.28a5.54,5.54,0,0,0-.59,2.25A.75.75,0,0,0,402.19,81.34Z"/><path class="cls-2" d="M494.89,10l2.16-1.18a11.09,11.09,0,0,1,1.37.29l2.64.69c1,.26,1.93.49,2.85.69a12,12,0,0,0,1.76.29h.59c.91,0,1.37.33,1.37,1l3.92-.2a4.79,4.79,0,0,0,1.57.2h4.11l4.32.78,2.74,1.18a1.74,1.74,0,0,1,.78.2l.79.39.78.39-.78.59v.78l-1.57,1.18,1.18,2L523.7,20a14.76,14.76,0,0,0-2.74.2l-4.51.59L513.12,20l-1,.79-1.57.58-1.76,2.94.39.4a3.49,3.49,0,0,0-.88,2.35,4.75,4.75,0,0,1-.49,2.15l-1-.58-2,6.66.59-.2-1.18,6.67a10.07,10.07,0,0,0,.29,2.84,1.5,1.5,0,0,0,1,1.08,4.87,4.87,0,0,0,2,0,20.43,20.43,0,0,1,3-.2l4.9,1.18a8.59,8.59,0,0,0,3.92,1.17A10.34,10.34,0,0,1,523.51,49l.19,3.53.79.59v.39l-2.35,1.17c-.27.14-.79.37-1.57.69a5.34,5.34,0,0,1-1.57.49l-16.27.59L502.14,60l.2,2.54a6.48,6.48,0,0,1-.69,2.26c-.32.59-.65,1.21-1,1.86a14.56,14.56,0,0,0-.88,2.35,12.37,12.37,0,0,0-.39,3.33c0,.4,0,.63-.1.69a.55.55,0,0,0-.1.39,5.49,5.49,0,0,0,.2,1.08c.13.52.32,1.37.59,2.55a2.49,2.49,0,0,1-1.08.59.91.91,0,0,0-.69,1l.39,4.31.4.78-.4.39.4.59.19,2c.4,0,.62-.36.69-1.08s.1-1.2.1-1.47V82.32c.78,0,1.14.75,1.07,2.25a18.16,18.16,0,0,0,.1,3.43v2.94l-1,.79a.4.4,0,0,1,.3.1.4.4,0,0,0,.29.09l.2.4-.79,1,.79.39-1,1.57h1a12.33,12.33,0,0,0,.19,2.35c.13.65.26,1.43.4,2.35L499,101.53l-4.71,2.15-7.64-1.37-1.76-1.17-2.55-.2-1.77-1.57c-2.22-.91-3.33-1.7-3.33-2.35a1.62,1.62,0,0,1,.2-.78l1.17-7.84.79-2.16a21.2,21.2,0,0,1,.68-3.23,12,12,0,0,0,.49-3.43,2.09,2.09,0,0,0-.1-.69,2.36,2.36,0,0,1-.09-.69c.13,0,.26-.45.39-1.37s.26-2,.39-3.13a29.86,29.86,0,0,0,.2-3.24V68.8a16.26,16.26,0,0,1,2.06-6.28,11.36,11.36,0,0,0,1.47-6.07l-8.43.39-3.73.78-5.68-3.72a4.19,4.19,0,0,1-1.57-1.57l-.59-1V48.22l1-.79H484.7l.59-1.37,1.56-4.7h-.58l.58-4.32-.78-1,.59-1.56h-.2c.13-.26.62-1.15,1.47-2.65s1.41-2.45,1.67-2.84v-.79a.59.59,0,0,0-.2-.39l1-2a3.41,3.41,0,0,0,.1-1.47,1.48,1.48,0,0,1,.29-1.27l2.16-6.08.79-1.57.39-2.94Zm15.68,35.47a.81.81,0,0,1-.59-.19Z"/><path class="cls-2" d="M537,72.52a1.24,1.24,0,0,1,.2-.69,5.87,5.87,0,0,0,.39-.68l.59-.59a17.47,17.47,0,0,1,1.86-6.86A13.17,13.17,0,0,1,544.28,58l1.57-.79c.26-.13.39-.42.39-.88a2.48,2.48,0,0,1,.2-1.08l.78-1c1-1.43,2.22-2.9,3.53-4.41s2.58-2.84,3.82-4A30.05,30.05,0,0,1,558,43a5.17,5.17,0,0,1,2.75-1.08,1.19,1.19,0,0,1,.68.2,8.11,8.11,0,0,0,1.67.59l2.16,2.74c.52.13,1,.66,1.37,1.57l.59,1.37v3.14l.58.78a5.1,5.1,0,0,1,.59.69,1.54,1.54,0,0,0,.59.49l2.35,1.57a5.45,5.45,0,0,0,1.18,2l2,2.35,2.74,3.13a7.82,7.82,0,0,1,.78,2.16c.27,1,.49,2.16.69,3.33s.36,2.26.49,3.24a18.69,18.69,0,0,1,.2,2v1.57L577.6,79l-.19,1.57-2,2.15-2.94,2.35a4.86,4.86,0,0,1-2.55.59,4.15,4.15,0,0,0-2.74,1l-1.57.59a3.85,3.85,0,0,1-2,.78.45.45,0,0,1-.3-.09.37.37,0,0,0-.29-.1l-2.35.39a6.27,6.27,0,0,1-3.34.59,9.26,9.26,0,0,1-2.15-.2l-4.51-1.17-4.51-1.57c-1.83-.52-3.23-1-4.21-1.37s-2.06-1.7-3.23-3.92l-.79-2a8.46,8.46,0,0,0-.78-1.57l-.79-3.14Zm8.82-10.58a16.07,16.07,0,0,0-2.35,3.52A9.74,9.74,0,0,0,542.13,70a2.75,2.75,0,0,0,.19,1.18l.4-1,3.13-5.69a8.64,8.64,0,0,0,1-1.76Zm7.25,17.24,1,.2a36.74,36.74,0,0,1,3.73-.69,8.58,8.58,0,0,0,3.13-.88l2-1.37,1.57-1.76.59-1.77-2.35-9-3.34-1.38-.58.4a4.31,4.31,0,0,0-1.18,1.47c-.52.85-1.08,1.86-1.67,3s-1.17,2.42-1.76,3.73a25.3,25.3,0,0,0-1.27,3.33Z"/></svg>